<?xml version="1.0" encoding="utf-8"?>
<!-- Generator: Adobe Illustrator 24.0.0, SVG Export Plug-In . SVG Version: 6.00 Build 0)  -->
<svg version="1.1" id="Layer_1" xmlns="http://www.w3.org/2000/svg" xmlns:xlink="http://www.w3.org/1999/xlink" x="0px" y="0px"
	 viewBox="0 0 1080 295.3" style="enable-background:new 0 0 1080 295.3;" xml:space="preserve">
<style type="text/css">
	.st0{fill:#C71733;}
	.st1{fill:#FFFEFE;}
	.st2{fill:#3A3A3A;}
	.st3{fill:#303030;}
	.st4{fill:#FCC21E;}
</style>
<g>
	<g>
		<g>
			<path class="st0" d="M183.7,24.6c61.6,0,123.3,0,184.9-0.1c2.5,0,3.3,0.3,3.3,3.1c-0.1,34.9-0.1,69.7-0.1,104.6
				c-1.5-0.1-2.9-0.2-4.4-0.2c-60,0-119.9,0-179.9,0.1c-3.2,0-4.1-0.7-4.1-4c0.1-33.4,0.1-66.8,0.1-100.3
				C183.5,26.8,183.6,25.7,183.7,24.6z"/>
			<path class="st0" d="M371.8,167.6c0,34.9,0,69.7,0.1,104.6c0,2.8-0.7,3.1-3.3,3.1c-61.6-0.1-123.3-0.1-184.9-0.1
				c-0.1-1.2-0.2-2.4-0.2-3.7c0-33.2,0-66.4-0.1-99.5c0-3.6,0.9-4.4,4.4-4.4c59.8,0.1,119.7,0.1,179.5,0.1
				C368.9,167.8,370.3,167.7,371.8,167.6z"/>
			<path class="st1" d="M371.8,167.6c-1.5,0-2.9,0.1-4.4,0.1c-59.8,0-119.7,0-179.5-0.1c-3.5,0-4.5,0.8-4.4,4.4
				c0.1,33.2,0.1,66.4,0.1,99.5c0,1.2,0.2,2.4,0.2,3.7c-12,0-24.1,0-36.1,0c0-34.4-0.1-68.7,0.1-103.1c0-3.9-1.1-4.5-4.7-4.5
				c-22.1,0.2-44.2,0.1-66.3,0.1c-12.3,0-24.5-0.1-36.8-0.1c0-11.8,0-23.6,0-35.4c1.5-0.1,2.9-0.2,4.4-0.2c32.9,0,65.8-0.1,98.7,0.1
				c3.5,0,4.7-0.6,4.7-4.5c-0.2-34.4-0.1-68.7-0.1-103.1c12,0,24.1,0,36.1,0c-0.1,1.1-0.2,2.2-0.2,3.3c0,33.4,0,66.8-0.1,100.3
				c0,3.3,0.9,4,4.1,4c60-0.1,119.9-0.1,179.9-0.1c1.5,0,2.9,0.1,4.4,0.2C371.8,144,371.8,155.8,371.8,167.6z"/>
			<path class="st0" d="M147.6,24.6c0,34.4-0.1,68.7,0.1,103.1c0,3.9-1.2,4.5-4.7,4.5c-32.9-0.1-65.8-0.1-98.7-0.1
				c-1.5,0-2.9,0.1-4.4,0.2c0-35,0-69.9-0.1-104.9c0-2.3,0.5-2.8,2.8-2.8C77.6,24.6,112.6,24.6,147.6,24.6z"/>
			<path class="st0" d="M39.9,167.6c12.3,0,24.5,0.1,36.8,0.1c22.1,0,44.2,0.1,66.3-0.1c3.6,0,4.7,0.6,4.7,4.5
				c-0.2,34.4-0.1,68.7-0.1,103.1c-35,0-69.9,0-104.9,0.1c-2.3,0-2.8-0.5-2.8-2.8C39.9,237.6,39.9,202.6,39.9,167.6z"/>
		</g>
	</g>
	<g>
		<g>
			<path class="st2" d="M425,262.2c-0.7-0.7-1.1-1.6-1.1-2.7V156.1c0-1.2,0.3-2.1,1-2.9c0.7-0.7,1.6-1.1,2.8-1.1h38.8
				c31.2,0,47.2,14.4,47.8,43.2c0.2,6.1,0.3,10.3,0.3,12.4c0,2-0.1,6.1-0.3,12.2c-0.4,14.8-4.4,25.8-12,32.8
				c-7.6,7-19.2,10.6-35,10.6h-39.5C426.6,263.3,425.7,263,425,262.2z M466.5,244.9c8.8,0,15.1-2,19.1-5.9c3.9-3.9,6-10.4,6.2-19.5
				c0.2-6.4,0.3-10.3,0.3-11.9c0-1.7-0.1-5.6-0.3-11.8c-0.2-8.7-2.4-15.1-6.5-19.1c-4.1-4.1-10.6-6.1-19.5-6.1h-19.4v74.3H466.5z"/>
			<path class="st2" d="M536.7,262.2c-0.7-0.7-1.1-1.6-1.1-2.7V156.1c0-1.2,0.3-2.1,1-2.9c0.7-0.7,1.6-1.1,2.8-1.1h70
				c1.2,0,2.1,0.4,2.9,1.1c0.7,0.7,1.1,1.7,1.1,2.9v10.6c0,1.2-0.4,2.1-1.1,2.8c-0.7,0.7-1.7,1-2.9,1h-52.1v27.8h48.6
				c1.2,0,2.1,0.4,2.9,1.1c0.7,0.7,1.1,1.7,1.1,2.9v10c0,1.2-0.4,2.1-1.1,2.8c-0.7,0.7-1.7,1-2.9,1h-48.6v28.7h53.4
				c1.2,0,2.1,0.3,2.9,1c0.7,0.7,1.1,1.6,1.1,2.8v10.8c0,1.2-0.4,2.1-1.1,2.8c-0.7,0.7-1.7,1-2.9,1h-71.3
				C538.3,263.3,537.4,263,536.7,262.2z"/>
			<path class="st2" d="M625.3,262.4c-0.6-0.6-1-1.4-1-2.4l0.3-1.4l38.1-102.4c1.1-2.6,3-4,5.7-4H686c2.8,0,4.7,1.3,5.7,4
				l38.1,102.4l0.3,1.4c0,1-0.3,1.7-1,2.4c-0.7,0.6-1.5,1-2.3,1h-14.1c-2.2,0-3.8-1-4.6-3l-7.3-19.2h-47l-7.3,19.2
				c-0.8,2-2.4,3-4.6,3h-14.1C626.7,263.3,625.9,263,625.3,262.4z M659.3,222.7h35.9l-17.9-48.9L659.3,222.7z"/>
			<path class="st2" d="M745.8,262.2c-0.7-0.7-1.1-1.6-1.1-2.7V156c0-1.2,0.4-2.1,1.1-2.8c0.7-0.7,1.6-1,2.7-1h14.9
				c1.2,0,2.1,0.3,2.8,1c0.7,0.7,1,1.6,1,2.8v88.3h50.4c1.2,0,2.1,0.4,2.9,1.1c0.7,0.7,1.1,1.6,1.1,2.7v11.4c0,1.1-0.4,2-1.1,2.7
				c-0.7,0.7-1.7,1.1-2.9,1.1h-69.1C747.5,263.3,746.6,263,745.8,262.2z"/>
			<path class="st2" d="M838.1,262.2c-0.7-0.7-1.1-1.6-1.1-2.7V156.1c0-1.2,0.3-2.1,1-2.9c0.7-0.7,1.6-1.1,2.8-1.1h70
				c1.2,0,2.1,0.4,2.9,1.1c0.7,0.7,1.1,1.7,1.1,2.9v10.6c0,1.2-0.4,2.1-1.1,2.8c-0.7,0.7-1.7,1-2.9,1h-52.1v27.8h48.6
				c1.2,0,2.1,0.4,2.9,1.1c0.7,0.7,1.1,1.7,1.1,2.9v10c0,1.2-0.4,2.1-1.1,2.8c-0.7,0.7-1.7,1-2.9,1h-48.6v28.7h53.4
				c1.2,0,2.1,0.3,2.9,1c0.7,0.7,1.1,1.6,1.1,2.8v10.8c0,1.2-0.4,2.1-1.1,2.8c-0.7,0.7-1.7,1-2.9,1h-71.3
				C839.8,263.3,838.9,263,838.1,262.2z"/>
			<path class="st2" d="M937.1,262.2c-0.7-0.7-1.1-1.6-1.1-2.7V156.1c0-1.2,0.3-2.1,1-2.9c0.7-0.7,1.6-1.1,2.8-1.1h41.1
				c13,0,23.2,3,30.6,9.1c7.4,6,11,14.6,11,25.7c0,7.7-1.9,14.2-5.6,19.5c-3.7,5.2-8.9,9-15.6,11.4l23,40.5c0.3,0.6,0.5,1.2,0.5,1.7
				c0,1-0.3,1.7-1,2.4c-0.7,0.6-1.5,1-2.3,1H1007c-1.7,0-3-0.4-4-1.2c-1-0.8-1.8-1.8-2.5-3.1l-20.3-37.6h-21.8v38.1
				c0,1.1-0.4,2-1.1,2.7c-0.7,0.7-1.7,1.1-2.9,1.1h-14.6C938.7,263.3,937.8,263,937.1,262.2z M980.4,203.3c6.4,0,11.1-1.4,14.3-4.2
				c3.2-2.8,4.8-6.9,4.8-12.3c0-5.4-1.6-9.6-4.8-12.5c-3.2-2.9-7.9-4.4-14.3-4.4h-22.1v33.4H980.4z"/>
		</g>
	</g>
	<g>
		<g>
			<path class="st2" d="M425,131.8c-0.7-0.7-1.1-1.6-1.1-2.7V25.7c0-1.2,0.3-2.1,1-2.9c0.7-0.7,1.6-1.1,2.8-1.1h38.8
				c31.2,0,47.2,14.4,47.8,43.2c0.2,6.1,0.3,10.3,0.3,12.4c0,2-0.1,6.1-0.3,12.2c-0.4,14.8-4.4,25.8-12,32.8
				c-7.6,7-19.2,10.6-35,10.6h-39.5C426.6,132.9,425.7,132.5,425,131.8z M466.5,114.5c8.8,0,15.1-2,19.1-5.9
				c3.9-3.9,6-10.4,6.2-19.5c0.2-6.4,0.3-10.3,0.3-11.9c0-1.7-0.1-5.6-0.3-11.8c-0.2-8.7-2.4-15.1-6.5-19.1
				c-4.1-4.1-10.6-6.1-19.5-6.1h-19.4v74.3H466.5z"/>
			<path class="st2" d="M536.7,131.8c-0.7-0.7-1.1-1.6-1.1-2.7V25.7c0-1.2,0.3-2.1,1-2.9c0.7-0.7,1.6-1.1,2.8-1.1h14.3
				c1.2,0,2.1,0.4,2.9,1.1c0.7,0.7,1.1,1.7,1.1,2.9v37.2l35.4-38.3c1.6-1.9,3.7-2.9,6.2-2.9h16.2c0.8,0,1.6,0.3,2.3,1
				c0.7,0.6,1,1.4,1,2.4c0,0.7-0.3,1.4-0.8,1.9l-43.2,48l46.4,52.6c0.4,0.7,0.6,1.4,0.6,2.1c0,1-0.3,1.7-1,2.4s-1.4,1-2.2,1h-16.7
				c-2.2,0-3.8-0.4-4.8-1.4c-1-0.9-1.5-1.4-1.6-1.5l-38-41.9v41c0,1.1-0.4,2-1.1,2.7c-0.7,0.7-1.7,1.1-2.9,1.1h-14.3
				C538.3,132.9,537.4,132.5,536.7,131.8z"/>
		</g>
	</g>
	<g>
		<path class="st3" d="M334.6,277.5c-3.9,0.2-8.4,0-12.9-0.2c-4.8-0.2-9.5-0.6-14.3-1.1c-7.2-0.7-14.3-1.6-21.4-3.1
			c-9.6-2.1-18.9-5.2-27.1-10.8c-6.1-4.1-10.9-9.3-14.1-15.9c-2.3-4.7-3.4-9.6-3.7-14.8c-0.6-9.9,1.5-19.4,4.3-28.7
			c1.6-5.2,3.5-10.3,6-15.1c3.3-6.4,7.5-12.3,12-17.8c2.5-3,5.3-5.9,8.1-8.6c6.5-6.3,13.7-11.6,21.5-16.1c7.4-4.1,15.1-7.3,23.3-9.4
			c4.6-1.1,9.3-1.9,14.1-2.1c1.3,0,2.6-0.1,3.9-0.1c0.5,0,0.8-0.2,0.9-0.8c0.4-4,2.4-7,5.7-9.3c0.7-0.5,0.9-0.9,0.7-1.7
			c-0.7-2.9-1.3-5.8-1.7-8.7c-0.9-7.1-0.5-14,3-20.4c1.9-3.6,4.3-6.7,8-8.6c5.6-3,11-2.5,16.4,0.5c2,1.1,3.9,2.4,5.4,4.2
			c1.2,1.5,2.7,1.6,4.4,1.4c5.9-0.6,11.6,0.1,16.7,3.5c4,2.7,6.3,6.6,7.3,11.3c0.3,1.2,0.4,2.3,0.4,3.5c0,0.7,0.3,1.1,0.8,1.4
			c5.6,3.1,9.2,7.9,10.1,14.2c0.9,6.2-1.1,11.5-6.3,15.4c-2.7,2-5.9,2.8-9.2,3.4c-4.1,0.7-8.2,1-12.3,1.4c0,0-0.1,0-0.1,0
			c-2.4,0.4-2.1-0.1-2.2,2.3c-0.1,2.8-1,5.2-3.1,7.1c-0.6,0.6-0.1,0.9,0.2,1.3c1.3,1.5,2.5,3,3.6,4.6c4.6,6.5,8.2,13.5,10,21.3
			c0.6,2.7,1.5,5.4,3.3,7.6c1.4,1.7,3.1,3.2,4.8,4.7c9,7.5,14.7,16.9,16.7,28.5c0.5,2.8,0.8,5.5,0.7,8.3c-0.1,6.5-1,12.9-3.9,18.9
			c-2.2,4.5-5.2,8.4-9,11.6c-7.2,6.2-15.7,9.7-24.7,12.2c-6,1.7-12.1,2.7-18.3,3.5c-4.3,0.5-8.6,0.9-12.9,1.1
			C345,277.4,340.1,277.6,334.6,277.5z M333.3,266.8c4.4-0.2,9.3-0.2,14.2-0.5c3.4-0.2,6.7-0.5,10-0.9c4.2-0.5,8.3-1.1,12.4-1.9
			c4.6-0.9,9.1-1.9,13.4-3.9c7.3-3.3,13.7-7.8,18.1-14.6c2.3-3.4,3.7-7.2,4.1-11.3c0.3-3,0-5.9-0.5-8.9c-1.5-8.1-5-15.1-10.3-21.3
			c-2.7-3.1-5.8-5.8-9-8.3c-1.4-1.1-2.1-2.5-2.2-4.2c-0.2-2.9-0.8-5.6-1.9-8.3c-2.7-6.6-6.2-12.8-10.1-18.8
			c-2.5-3.9-5.6-7.4-9.3-10.3c-6.9-5.4-14.8-7.9-23.4-8.4c-5.6-0.4-11.3,0.1-16.8,1.2c-6.9,1.3-13.6,3.5-20.2,6.1
			c-13.8,5.6-25.1,14.4-33.8,26.4c-8.6,11.8-13.7,25-14.8,39.7c-0.4,5.8,0.1,11.4,1.9,16.9c3.1,9.2,9.3,15.9,17.6,20.6
			c6.9,3.9,14.4,6,22.1,7.4c7.2,1.3,14.4,2.1,21.7,2.6C321.9,266.5,327.4,266.7,333.3,266.8z M351.3,108.4c0,0.7-0.1,1.5,0,2.2
			c0.4,3.3,1.1,6.5,1.8,9.8c0.1,0.6,0.3,0.8,0.9,0.9c3.4,0.6,6.7,1.7,9.9,2.9c0.5,0.2,0.7,0.1,1.1-0.3c1.5-1.8,3.3-3.3,5-4.9
			c1.6-1.5,3.5-2.4,5.5-2.9c1.7-0.4,3.1,0.3,3.2,1.8c0.1,0.5,0,1.1-0.1,1.6c-0.8,3.5-2.7,6.5-4.1,9.8c-0.2,0.4-0.2,0.6,0.1,0.8
			c1.1,0.9,2.2,1.8,3,2.9c0.4,0.6,0.9,0.6,1.6,0.5c1.5-0.3,3-0.6,4.5-0.7c4.4-0.4,8.8-0.8,13.1-1.6c3.2-0.6,4.8-3.2,3.8-6.3
			c-0.7-2.2-2.1-3.8-4.1-4.9c-1.5-0.8-2.9-1.8-4.3-2.7c-1.7-1-2.5-2.4-2.8-4.3c-0.1-1,0.1-2,0.2-3c0.4-2.4-0.5-6-3.7-7.4
			c-2.8-1.2-5.7-1-8.6-0.9c-1.9,0.1-3.8,0.3-5.7,0c-2.7-0.5-4.8-2.2-6.6-4.2c-1.2-1.3-2.6-2.5-4.3-3.2c-2.4-1.1-4.4-0.6-6.1,1.4
			C351.9,99.4,351,103.8,351.3,108.4z M352.7,129.2c-1.9,0.1-3.8,0.4-5.4,1.5c-0.7,0.5-1.3,1.1-1.3,2c-0.1,1.2,0.7,2.2,2.3,2.5
			c6,1.4,11.6,3.7,16.8,7c1.9,1.2,3.5,1,5.3,0c2.2-1.3,2.5-3.3,0.7-5.1c-0.4-0.4-0.7-0.7-1.2-1c-3.5-2.2-7.1-4-10.9-5.6
			C356.9,129.7,354.8,129.4,352.7,129.2z"/>
		<path class="st4" d="M333.3,266.8c-5.9-0.1-11.4-0.2-16.9-0.6c-7.3-0.5-14.5-1.4-21.7-2.6c-7.7-1.4-15.2-3.5-22.1-7.4
			c-8.3-4.7-14.5-11.4-17.6-20.6c-1.8-5.5-2.3-11.2-1.9-16.9c1-14.7,6.2-27.8,14.8-39.7c8.7-12,20-20.9,33.8-26.4
			c6.5-2.6,13.2-4.8,20.2-6.1c5.6-1.1,11.2-1.5,16.8-1.2c8.6,0.5,16.6,3,23.4,8.4c3.7,2.9,6.7,6.4,9.3,10.3
			c3.9,6,7.4,12.1,10.1,18.8c1.1,2.7,1.7,5.4,1.9,8.3c0.1,1.7,0.8,3.1,2.2,4.2c3.3,2.5,6.3,5.2,9,8.3c5.4,6.2,8.9,13.2,10.3,21.3
			c0.5,3,0.8,5.9,0.5,8.9c-0.4,4.1-1.8,7.9-4.1,11.3c-4.5,6.8-10.8,11.3-18.1,14.6c-4.3,1.9-8.8,2.9-13.4,3.9
			c-4.1,0.8-8.2,1.4-12.4,1.9c-3.3,0.4-6.7,0.6-10,0.9C342.7,266.5,337.8,266.6,333.3,266.8z M346.9,189.9c0.3,0,0.5,0.2,0.6,0.3
			c3.1,2.4,6.2,4.9,9.1,7.6c0.6,0.5,1.2,0.7,1.9,0.2c3.3-2.4,6.5-4.8,9.8-7.3c0.7-0.5,0.7-1.2,0.2-1.9c-0.5-0.5-0.9-1-1.4-1.5
			c-4.3-4.3-9-8.2-14.1-11.6c-0.6-0.4-0.7-0.7-0.4-1.4c0.7-1.8,1.4-3.7,2-5.5c0.6-1.7,0.3-2.3-1.3-2.9c-3.6-1.3-7.2-2.6-10.7-3.9
			c-1.3-0.5-2-0.1-2.4,1.2c-0.5,1.3-1,2.6-1.4,4c-0.2,0.8-0.6,0.8-1.3,0.6c-3.3-1-6.7-1.6-10.1-1.6c-6.7-0.1-12.6,2.1-17.2,7
			c-4,4.2-5.7,9.1-4.3,14.9c0.9,3.7,3.1,6.7,5.7,9.5c3.6,3.8,7.6,7,11.6,10.4c0.5,0.4,0.6,0.8,0.4,1.5c-1.6,4.3-3.1,8.5-4.6,12.8
			c-0.3,0.7-0.5,0.9-1.1,0.4c-4.7-3.3-9-7.1-12.7-11.4c-0.7-0.8-1.2-1-2.1-0.4c-3.7,2.3-7.4,4.7-11,7c-0.9,0.6-1,1.2-0.4,2.1
			c0.8,1.1,1.6,2.2,2.4,3.2c5.1,6.2,11.1,11.5,18,15.7c0.6,0.4,0.7,0.7,0.5,1.4c-0.6,1.4-1.1,2.9-1.6,4.3c-0.4,1.2-0.1,1.9,1.1,2.3
			c3.7,1.4,7.4,2.7,11.1,4c1.2,0.4,1.9,0.1,2.4-1.1c0.4-1.2,0.9-2.4,1.3-3.6c0.2-0.5,0.4-0.6,0.9-0.5c2,0.5,4.1,0.9,6.2,1.1
			c8.2,0.7,15.5-1.5,21.5-7.3c3.8-3.7,5.6-8.2,5-13.6c-0.4-3.9-2-7.4-4.3-10.6c-3.5-4.7-7.7-8.6-12-12.5c-1.3-1.2-1.3-1.2-0.7-2.8
			C344.4,196.7,345.7,193.3,346.9,189.9z"/>
		<path class="st4" d="M351.3,108.4c-0.3-4.6,0.6-8.9,3.6-12.6c1.7-2.1,3.7-2.6,6.1-1.4c1.6,0.8,3,1.9,4.3,3.2
			c1.8,2,3.8,3.7,6.6,4.2c1.9,0.4,3.8,0.1,5.7,0c2.9-0.2,5.8-0.4,8.6,0.9c3.2,1.4,4.2,5,3.7,7.4c-0.2,1-0.4,1.9-0.2,3
			c0.3,1.9,1.1,3.3,2.8,4.3c1.5,0.9,2.9,1.8,4.3,2.7c2,1.1,3.4,2.7,4.1,4.9c1,3.1-0.6,5.7-3.8,6.3c-4.3,0.8-8.7,1.1-13.1,1.6
			c-1.5,0.1-3,0.4-4.5,0.7c-0.6,0.1-1.1,0.1-1.6-0.5c-0.8-1.2-1.9-2-3-2.9c-0.4-0.3-0.3-0.4-0.1-0.8c1.4-3.2,3.3-6.3,4.1-9.8
			c0.1-0.5,0.1-1.1,0.1-1.6c-0.2-1.4-1.5-2.2-3.2-1.8c-2.1,0.5-4,1.4-5.5,2.9c-1.7,1.6-3.5,3.2-5,4.9c-0.3,0.4-0.6,0.5-1.1,0.3
			c-3.2-1.2-6.5-2.3-9.9-2.9c-0.5-0.1-0.8-0.3-0.9-0.9c-0.8-3.2-1.5-6.5-1.8-9.8C351.2,109.8,351.3,109.1,351.3,108.4z"/>
		<path class="st4" d="M352.7,129.2c2.1,0.2,4.2,0.5,6.2,1.3c3.8,1.6,7.4,3.4,10.9,5.6c0.4,0.3,0.8,0.6,1.2,1
			c1.8,1.9,1.6,3.8-0.7,5.1c-1.7,1-3.4,1.2-5.3,0c-5.2-3.3-10.8-5.6-16.8-7c-1.6-0.4-2.4-1.3-2.3-2.5c0.1-0.9,0.6-1.5,1.3-2
			C348.9,129.6,350.8,129.4,352.7,129.2z"/>
		<path class="st3" d="M346.9,189.9c-1.2,3.4-2.5,6.8-3.7,10.2c-0.6,1.7-0.6,1.7,0.7,2.8c4.3,3.9,8.5,7.8,12,12.5
			c2.3,3.2,3.8,6.6,4.3,10.6c0.6,5.4-1.2,9.9-5,13.6c-6,5.8-13.3,8-21.5,7.3c-2.1-0.2-4.2-0.5-6.2-1.1c-0.5-0.1-0.7,0-0.9,0.5
			c-0.4,1.2-0.8,2.4-1.3,3.6c-0.5,1.2-1.2,1.6-2.4,1.1c-3.7-1.3-7.4-2.7-11.1-4c-1.2-0.4-1.5-1.1-1.1-2.3c0.5-1.5,1-2.9,1.6-4.3
			c0.3-0.7,0.1-1-0.5-1.4c-6.9-4.2-12.9-9.5-18-15.7c-0.9-1-1.6-2.1-2.4-3.2c-0.6-0.9-0.5-1.5,0.4-2.1c3.7-2.4,7.3-4.7,11-7
			c0.8-0.5,1.4-0.4,2.1,0.4c3.7,4.4,8,8.1,12.7,11.4c0.7,0.5,0.9,0.4,1.1-0.4c1.5-4.3,3.1-8.6,4.6-12.8c0.2-0.7,0.1-1-0.4-1.5
			c-4-3.4-8-6.7-11.6-10.4c-2.6-2.7-4.8-5.7-5.7-9.5c-1.4-5.8,0.4-10.7,4.3-14.9c4.6-4.9,10.5-7.1,17.2-7c3.5,0,6.8,0.7,10.1,1.6
			c0.7,0.2,1.1,0.2,1.3-0.6c0.4-1.3,0.9-2.7,1.4-4c0.5-1.3,1.2-1.7,2.4-1.2c3.6,1.3,7.2,2.6,10.7,3.9c1.6,0.6,1.9,1.2,1.3,2.9
			c-0.7,1.8-1.3,3.7-2,5.5c-0.3,0.6-0.2,1,0.4,1.4c5,3.5,9.7,7.3,14.1,11.6c0.5,0.5,1,1,1.4,1.5c0.6,0.7,0.6,1.4-0.2,1.9
			c-3.3,2.4-6.5,4.9-9.8,7.3c-0.7,0.5-1.3,0.3-1.9-0.2c-2.9-2.7-6-5.2-9.1-7.6C347.3,190.1,347.2,189.9,346.9,189.9z M336.3,219.3
			c-1.2,3.2-2.3,6.4-3.5,9.5c-0.1,0.3-0.1,0.5,0.3,0.6c1.4,0.1,2.8,0,4-0.6c2.6-1.3,3.4-3.8,1.9-6.2
			C338.3,221.4,337.4,220.4,336.3,219.3z M330.9,182.2c-0.5,0.1-1.2,0.1-1.9,0.3c-2.9,0.9-3.8,4-1.8,6.3c0.6,0.7,1.4,1.3,2.1,2
			c0.5,0.5,0.7,0.3,0.9-0.3c0.7-2.1,1.5-4.2,2.3-6.3C333.1,182.3,333.1,182.3,330.9,182.2z"/>
		<path class="st4" d="M336.3,219.3c1.1,1.1,2.1,2.1,2.8,3.3c1.5,2.5,0.8,5-1.9,6.2c-1.3,0.6-2.7,0.6-4,0.6c-0.5,0-0.4-0.3-0.3-0.6
			C333.9,225.7,335.1,222.6,336.3,219.3z"/>
		<path class="st4" d="M330.9,182.2c2.2,0.1,2.2,0.1,1.5,2c-0.8,2.1-1.5,4.2-2.3,6.3c-0.2,0.5-0.3,0.8-0.9,0.3
			c-0.7-0.6-1.5-1.2-2.1-2c-2-2.3-1.1-5.4,1.8-6.3C329.7,182.3,330.4,182.3,330.9,182.2z"/>
	</g>
</g>
</svg>
